HIERARCHY
ROOT Hips
{
 OFFSET 0.000000 0.000000 0.000000
 CHANNELS 6 Xposition Yposition Zposition Yrotation Xrotation Zrotation
 JOINT Chest
 {
  OFFSET 0.000000 10.080317 -0.001081
  CHANNELS 3 Yrotation Xrotation Zrotation
  JOINT Chest2
  {
   OFFSET 0.000000 11.096852 0.001963
   CHANNELS 3 Yrotation Xrotation Zrotation
   JOINT Chest3
   {
    OFFSET 0.000000 10.026525 0.000000
    CHANNELS 3 Yrotation Xrotation Zrotation
    JOINT Chest4
    {
     OFFSET 0.000000 10.026525 0.000000
     CHANNELS 3 Yrotation Xrotation Zrotation
     JOINT Neck
     {
      OFFSET 0.000000 14.108171 0.000000
      CHANNELS 3 Yrotation Xrotation Zrotation
      JOINT Head
      {
       OFFSET 0.000000 9.333493 0.004668
       CHANNELS 3 Yrotation Xrotation Zrotation
       End Site
       {
        OFFSET 0.000000 17.851786 0.002438
       }
      }
     }
     JOINT RightCollar
     {
      OFFSET -3.071622 7.873185 0.000000
      CHANNELS 3 Yrotation Xrotation Zrotation
      JOINT RightShoulder
      {
       OFFSET -14.378659 0.000000 0.000000
       CHANNELS 3 Yrotation Xrotation Zrotation
       JOINT RightElbow
       {
        OFFSET -30.778728 0.000000 0.000000
        CHANNELS 3 Yrotation Xrotation Zrotation
        JOINT RightWrist
        {
         OFFSET -25.164217 0.000000 0.000000
         CHANNELS 3 Yrotation Xrotation Zrotation
         End Site
         {
          OFFSET -18.796788 0.000000 0.000000
         }
        }
       }
      }
     }
     JOINT LeftCollar
     {
      OFFSET 3.071622 7.873185 0.000000
      CHANNELS 3 Yrotation Xrotation Zrotation
      JOINT LeftShoulder
      {
       OFFSET 14.378659 0.000000 0.000000
       CHANNELS 3 Yrotation Xrotation Zrotation
       JOINT LeftElbow
       {
        OFFSET 30.778728 0.000000 0.000000
        CHANNELS 3 Yrotation Xrotation Zrotation
        JOINT LeftWrist
        {
         OFFSET 25.164217 0.000000 0.000000
         CHANNELS 3 Yrotation Xrotation Zrotation
         End Site
         {
          OFFSET 18.796788 0.000000 0.000000
         }
        }
       }
      }
     }
    }
   }
  }
 }
 JOINT RightHip
 {
  OFFSET -8.194923 0.005295 0.000540
  CHANNELS 3 Yrotation Xrotation Zrotation
  JOINT RightKnee
  {
   OFFSET 0.000000 -42.473320 -0.000511
   CHANNELS 3 Yrotation Xrotation Zrotation
   JOINT RightAnkle
   {
    OFFSET 0.000000 -41.474259 -0.000865
    CHANNELS 3 Yrotation Xrotation Zrotation
    JOINT RightToe
    {
     OFFSET 0.000000 -7.354994 16.712725
     CHANNELS 3 Yrotation Xrotation Zrotation
     End Site
     {
      OFFSET 0.000000 -1.553903 6.764158
     }
    }
   }
  }
 }
 JOINT LeftHip
 {
  OFFSET 8.194923 0.005295 0.000540
  CHANNELS 3 Yrotation Xrotation Zrotation
  JOINT LeftKnee
  {
   OFFSET 0.000000 -42.473320 -0.000511
   CHANNELS 3 Yrotation Xrotation Zrotation
   JOINT LeftAnkle
   {
    OFFSET 0.000000 -41.474259 -0.000865
    CHANNELS 3 Yrotation Xrotation Zrotation
    JOINT LeftToe
    {
     OFFSET 0.000000 -7.354994 16.712725
     CHANNELS 3 Yrotation Xrotation Zrotation
     End Site
     {
      OFFSET 0.000000 -1.553903 6.764158
     }
    }
   }
  }
 }
}
MOTION
Frames: 9
Frame Time: 0.016667
-38.573365 86.522774 115.783310 -10.515192 -0.927092 -11.066512 -13.895088 7.894249 -7.396942 -5.088580 3.839269 -2.914438 -5.088580 3.839269 -2.914438 -3.796777 2.904022 -2.153177 5.517884 17.967177 12.874649 5.886210 -2.750962 21.851590 8.887166 -18.051813 3.048679 18.666481 -32.253129 40.413445 125.640312 -11.326270 18.187802 0.301277 7.376618 -5.768038 -22.851381 -8.341337 -5.748902 14.617698 -64.635874 -57.814380 -30.533091 -51.466180 -65.920181 -1.711745 -5.001229 -21.891303 -4.741850 -29.626849 24.241037 14.665803 24.592406 2.733849 5.792033 13.021980 -4.041240 -0.202959 -2.441313 -0.469462 26.032405 -2.323913 20.506655 13.094463 37.601037 -12.198425 17.581258 -29.006572 0.925218 -0.403549 -2.189511 -4.088876
-38.380444 86.199289 116.065136 -12.762933 -1.305808 -12.026221 -14.304201 7.823173 -7.175072 -5.411430 3.691731 -2.894151 -5.411430 3.691731 -2.894151 -4.039773 2.794746 -2.137331 5.021594 18.026142 12.713470 5.038808 -2.586869 21.719100 7.888424 -19.028310 2.756827 19.449555 -32.679535 40.209156 125.658157 -11.179703 18.170877 0.112187 7.429037 -5.753013 -25.414439 -12.379095 -4.561889 11.954950 -68.285904 -54.731277 -30.994674 -50.810783 -66.257472 -1.148269 -5.416454 -22.675840 -4.160175 -29.925540 25.596988 14.522725 25.661485 2.950770 6.507350 12.809670 -4.148866 -0.120473 -2.433825 -0.487905 27.929373 -2.787958 21.584170 13.897754 38.571202 -12.067162 16.875084 -29.065293 0.794872 -0.019419 -3.557116 -5.648832
-38.109891 85.909071 116.504898 -15.582798 -1.813451 -12.458270 -13.870937 7.582175 -7.061975 -5.625135 3.482826 -2.865312 -5.625135 3.482826 -2.865312 -4.201316 2.638815 -2.116442 4.463712 18.527407 12.492706 4.157417 -1.602918 21.473396 7.006030 -19.707291 2.645188 20.207738 -32.863992 40.161114 125.531285 -11.054394 18.351757 0.004426 7.429988 -5.728874 -26.990478 -14.769641 -3.347135 2.745970 -69.653485 -45.621429 -31.281491 -49.702728 -65.292818 -0.647834 -5.454468 -22.997831 -3.275142 -29.939125 26.519404 14.670681 26.637000 3.217508 7.399860 12.349938 -4.284008 0.004278 -2.161921 -0.558516 29.734604 -2.589073 21.843270 15.017108 38.965167 -11.647973 16.706695 -28.844445 0.623487 0.459973 -4.805110 -7.027700
-37.867743 85.906389 116.902229 -17.533616 -1.997531 -12.664106 -13.904164 7.150783 -6.850255 -5.742352 3.293753 -2.851827 -5.742352 3.293753 -2.851827 -4.290305 2.497427 -2.107523 4.124365 19.089015 12.294231 3.676075 -0.536008 21.191183 6.305026 -20.138916 2.674032 20.670159 -33.004534 40.280709 125.359006 -11.012426 18.636742 -0.060016 7.394007 -5.876222 -27.867503 -15.701001 -2.221124 -5.829588 -69.363229 -36.761948 -31.657655 -48.325698 -64.193039 -0.165659 -5.420780 -23.201874 -3.232703 -29.862134 27.169038 14.640731 27.334681 3.308443 8.582731 12.378745 -4.255851 -0.049733 -2.244994 -0.736152 30.230424 -2.029473 21.538629 16.229673 38.869388 -11.023573 17.501208 -29.258455 0.392157 0.592887 -5.106584 -8.530063
-37.692477 86.018598 117.460913 -19.328153 -2.346068 -12.687969 -13.648276 6.880176 -6.660053 -5.790709 3.171277 -2.828708 -5.790709 3.171277 -2.828708 -4.327343 2.405568 -2.091136 4.212889 19.508902 12.173083 3.928564 0.216659 20.921687 5.927245 -20.286763 2.677220 20.805524 -33.158918 40.383425 125.281539 -11.090164 18.788326 -0.014293 7.384775 -6.172976 -28.018850 -16.222620 -2.170605 -10.888350 -68.417714 -31.559976 -31.715112 -46.965380 -63.810937 0.341609 -5.211744 -23.614326 -2.746158 -29.476241 27.388501 14.449369 27.773710 3.350734 9.700762 12.363996 -4.137321 -0.250969 -2.293721 -0.943833 30.609906 -1.240167 20.995088 17.614031 38.546114 -10.134975 17.961491 -29.432388 0.458103 0.869040 -5.372883 -9.936820
-37.410447 86.223378 117.789927 -20.355207 -2.692309 -12.537127 -13.609969 6.678071 -6.604707 -5.755680 3.087096 -2.814675 -5.755680 3.087096 -2.814675 -4.301595 2.342127 -2.081615 4.536594 19.721921 12.268588 4.514669 0.572682 20.985652 5.650506 -19.962645 2.616404 20.516911 -33.422109 40.649463 125.354178 -11.280377 18.861743 0.062715 7.386938 -6.499943 -27.845839 -16.148889 -3.012624 -11.767364 -68.350498 -30.871812 -31.644341 -45.871258 -63.664453 0.760651 -5.013152 -24.174622 -2.477709 -29.092535 27.212387 14.291203 28.056348 3.321239 10.493645 12.321669 -3.875357 -0.375604 -2.239538 -1.048409 30.768671 -0.378615 20.331177 18.506025 38.049036 -9.344077 18.723908 -29.087558 0.701957 0.867636 -5.971921 -11.402367
-37.124766 86.356942 118.098018 -20.928756 -3.123543 -12.272838 -13.615800 6.699383 -6.645941 -5.725245 3.079207 -2.801563 -5.725245 3.079207 -2.801563 -4.278881 2.335944 -2.072011 4.752690 19.709682 12.464204 4.846821 0.534787 21.275704 5.523934 -19.478032 2.417239 20.125647 -33.606206 40.971931 125.505897 -11.526708 18.818593 0.117913 7.383603 -6.757008 -27.626891 -15.678412 -4.064532 -9.488524 -68.995651 -33.114890 -31.240865 -45.848629 -63.879426 0.951107 -4.944353 -24.588536 -2.029525 -28.869731 26.795532 14.206690 28.461608 3.264505 10.885825 12.332612 -3.460765 -0.505193 -2.301021 -1.092397 30.874483 0.401418 19.746615 19.012506 37.679483 -8.847155 19.142113 -28.667022 1.204023 0.963616 -6.614096 -12.621558
-36.792046 86.319634 118.179407 -21.295010 -3.432013 -12.000719 -13.504564 6.719978 -6.710626 -5.676730 3.125009 -2.792312 -5.676730 3.125009 -2.792312 -4.242307 2.369986 -2.064873 4.571882 19.658235 12.569916 4.481324 0.471997 21.527306 5.467999 -19.049543 2.191226 19.990543 -33.631497 41.104758 125.507475 -11.633675 18.655624 0.044246 7.347133 -6.858996 -27.371347 -14.887752 -4.870351 -5.601923 -70.171460 -37.014067 -30.922453 -46.261500 -63.805038 0.925764 -4.966022 -24.695188 -1.378971 -29.052182 26.333498 13.901475 29.049813 3.174545 11.070054 12.245932 -3.136952 -0.591842 -2.297365 -1.034096 31.327815 0.911615 19.359825 19.128007 37.435560 -8.680009 19.082621 -28.046867 1.728069 1.036107 -7.497966 -13.455913
-36.421833 86.193523 118.164852 -21.425952 -3.630933 -11.576229 -13.525982 6.750881 -6.833072 -5.692760 3.183512 -2.754415 -5.692760 3.183512 -2.754415 -4.254214 2.413589 -2.035808 4.240347 19.667369 12.387540 3.935761 0.521094 21.297591 5.709408 -18.827350 1.787814 20.283937 -33.650960 40.878800 125.430709 -11.432427 18.547641 0.014357 7.395556 -6.886287 -26.786494 -14.304550 -5.425271 -1.668397 -71.271247 -40.998723 -30.415042 -46.746687 -63.844284 0.791472 -5.083645 -24.549040 -0.781468 -29.418759 25.712846 13.531616 29.673548 3.034393 10.976542 12.009026 -3.029901 -0.473760 -2.109050 -0.806206 32.029311 1.360148 19.059388 18.915293 37.265060 -8.838221 18.733514 -27.477130 1.923692 1.053515 -8.364343 -13.711405
